<svg xmlns="http://www.w3.org/2000/svg" xmlns:xlink="http://www.w3.org/1999/xlink" width="500" zoomAndPan="magnify" viewBox="0 0 375 225" height="300" preserveAspectRatio="xMidYMid meet" version="1.2"><defs><filter x="0%" y="0%" width="100%" filterUnits="objectBoundingBox" id="e6297357eb" height="100%"><feColorMatrix values="0 0 0 0 1 0 0 0 0 1 0 0 0 0 1 0 0 0 1 0" type="matrix" in="SourceGraphic"/></filter><clipPath id="85004ae237"><rect x="0" width="163" y="0" height="210"/></clipPath><clipPath id="2e32cfb76d"><rect x="0" width="326" y="0" height="211"/></clipPath></defs><g id="5452a00e59"><g mask="url(#b8c987308e)" transform="matrix(1,0,0,1,124,9)"><g clip-path="url(#85004ae237)"><g style="fill:#ffffff;fill-opacity:1;"><g transform="translate(0.504712, 151.558941)"><path style="stroke:none" d="M 6.5 0 C 4.914062 0 3.859375 -0.894531 3.328125 -2.6875 C 2.796875 -4.488281 3.21875 -5.863281 4.59375 -6.8125 C 5.332031 -7.34375 6.390625 -7.976562 7.765625 -8.71875 C 10.617188 -10.195312 12.046875 -12.46875 12.046875 -15.53125 L 15.0625 -100.671875 C 14.75 -103.210938 13.375 -105.0625 10.9375 -106.21875 C 9.5625 -106.96875 8.503906 -107.601562 7.765625 -108.125 C 6.390625 -109.082031 5.96875 -110.457031 6.5 -112.25 C 7.03125 -114.050781 8.085938 -114.953125 9.671875 -114.953125 L 51.046875 -114.953125 C 54.117188 -114.953125 56.285156 -113.46875 57.546875 -110.5 L 82.609375 -48.515625 L 105.4375 -110.5 C 106.707031 -113.46875 108.875 -114.953125 111.9375 -114.953125 L 150.296875 -114.953125 C 151.992188 -114.953125 153.128906 -114.050781 153.703125 -112.25 C 154.285156 -110.457031 153.890625 -109.082031 152.515625 -108.125 C 152.097656 -107.8125 151.648438 -107.492188 151.171875 -107.171875 C 150.703125 -106.859375 150.203125 -106.597656 149.671875 -106.390625 C 147.234375 -104.796875 145.910156 -102.628906 145.703125 -99.890625 L 149.828125 -15.53125 C 149.828125 -12.675781 151.148438 -10.351562 153.796875 -8.5625 C 154.316406 -8.351562 154.816406 -8.085938 155.296875 -7.765625 C 155.773438 -7.453125 156.222656 -7.132812 156.640625 -6.8125 C 158.015625 -5.863281 158.410156 -4.488281 157.828125 -2.6875 C 157.253906 -0.894531 156.117188 0 154.421875 0 L 105.4375 0 C 103.851562 0 102.796875 -0.894531 102.265625 -2.6875 C 101.734375 -4.488281 102.101562 -5.863281 103.375 -6.8125 C 103.90625 -7.132812 104.429688 -7.453125 104.953125 -7.765625 C 105.484375 -8.085938 106.015625 -8.40625 106.546875 -8.71875 C 107.921875 -9.351562 108.976562 -10.300781 109.71875 -11.5625 C 110.457031 -12.832031 110.878906 -14.15625 110.984375 -15.53125 L 107.34375 -87.671875 L 77.6875 -4.4375 C 76.414062 -1.476562 74.300781 0 71.34375 0 L 63.890625 0 C 60.828125 0 58.660156 -1.476562 57.390625 -4.4375 L 25.6875 -88.15625 L 23.140625 -15.53125 C 23.035156 -14.15625 23.378906 -12.859375 24.171875 -11.640625 C 24.972656 -10.429688 26.003906 -9.40625 27.265625 -8.5625 C 27.691406 -8.351562 28.140625 -8.085938 28.609375 -7.765625 C 29.085938 -7.453125 29.539062 -7.132812 29.96875 -6.8125 C 31.34375 -5.863281 31.765625 -4.488281 31.234375 -2.6875 C 30.703125 -0.894531 29.59375 0 27.90625 0 Z M 6.5 0 "/></g></g></g><mask id="b8c987308e"><g filter="url(#e6297357eb)"><rect x="0" width="375" y="0" height="225" style="fill:#000000;fill-opacity:0.57;stroke:none;"/></g></mask></g><g mask="url(#d9a89a8af8)" transform="matrix(1,0,0,1,15,8)"><g clip-path="url(#2e32cfb76d)"><g style="fill:#ffffff;fill-opacity:1;"><g transform="translate(59.970016, 147.028082)"><path style="stroke:none" d="M 159.09375 -87.46875 C 158.914062 -87.03125 158.742188 -86.59375 158.578125 -86.15625 C 156.890625 -81.757812 155.066406 -77.4375 153.109375 -73.1875 C 143.003906 -52.1875 132.15625 -31.875 120.5625 -12.25 C 116.789062 -5.914062 112.9375 0.304688 109 6.421875 C 105.0625 12.535156 101.097656 18.625 97.109375 24.6875 C 96.160156 26.113281 95.207031 27.539062 94.25 28.96875 C 94.195312 29.082031 94.144531 29.164062 94.09375 29.21875 C 93.875 29.65625 93.617188 30.015625 93.328125 30.296875 C 93.046875 30.585938 92.660156 30.734375 92.171875 30.734375 C 91.953125 30.734375 91.722656 30.675781 91.484375 30.5625 C 91.242188 30.457031 91.050781 30.320312 90.90625 30.15625 C 90.789062 30.007812 90.707031 29.773438 90.65625 29.453125 C 90.601562 29.128906 90.628906 28.867188 90.734375 28.671875 C 91.378906 27.265625 92.101562 25.9375 92.90625 24.6875 C 94.6875 21.757812 96.484375 18.832031 98.296875 15.90625 C 101.703125 10.46875 105.050781 5.019531 108.34375 -0.4375 C 115.644531 -12.613281 122.613281 -25.046875 129.25 -37.734375 C 135.894531 -50.421875 142.382812 -63.238281 148.71875 -76.1875 C 151.257812 -81.1875 153.351562 -86.539062 155 -92.25 C 155.332031 -93.238281 155.585938 -94.265625 155.765625 -95.328125 C 155.953125 -96.390625 156.046875 -97.488281 156.046875 -98.625 C 155.878906 -101.070312 154.835938 -102.132812 152.921875 -101.8125 C 151.234375 -101.476562 149.640625 -100.945312 148.140625 -100.21875 C 144.585938 -98.507812 141.082031 -96.613281 137.625 -94.53125 C 119.070312 -83.269531 102.171875 -69.289062 86.921875 -52.59375 C 86.703125 -52.332031 86.460938 -52.066406 86.203125 -51.796875 C 80.929688 -46.066406 75.703125 -40.289062 70.515625 -34.46875 C 65.335938 -28.644531 60.304688 -22.65625 55.421875 -16.5 C 54.410156 -15.21875 53.347656 -14.019531 52.234375 -12.90625 C 51.046875 -11.675781 49.628906 -11.191406 47.984375 -11.453125 C 47.285156 -11.546875 46.710938 -11.890625 46.265625 -12.484375 C 45.816406 -13.078125 45.644531 -13.773438 45.75 -14.578125 C 46.082031 -16.742188 46.5625 -18.84375 47.1875 -20.875 C 49.144531 -27.300781 51.222656 -33.644531 53.421875 -39.90625 C 53.742188 -40.875 54.035156 -41.804688 54.296875 -42.703125 C 54.878906 -45.046875 55.703125 -47.207031 56.765625 -49.1875 C 56.765625 -49.238281 56.738281 -49.265625 56.6875 -49.265625 C 56.425781 -49.410156 56.160156 -49.523438 55.890625 -49.609375 C 55.628906 -49.691406 55.363281 -49.597656 55.09375 -49.328125 C 54.125 -48.265625 53.195312 -47.15625 52.3125 -46 C 44.957031 -36.039062 37.679688 -26 30.484375 -15.875 C 23.285156 -5.75 16.253906 4.539062 9.390625 15 C 8.804688 16.019531 8.15625 16.847656 7.4375 17.484375 C 6.726562 18.128906 5.785156 18.34375 4.609375 18.125 C 4.078125 17.976562 3.664062 17.648438 3.375 17.140625 C 3.082031 16.640625 3.019531 16.144531 3.1875 15.65625 C 3.8125 14.226562 4.5 12.875 5.25 11.59375 C 7.382812 7.925781 9.488281 4.253906 11.5625 0.578125 C 15.738281 -6.691406 19.882812 -14 24 -21.34375 C 30.375 -32.601562 36.0625 -44.457031 41.0625 -56.90625 C 43.019531 -61.6875 44.617188 -66.710938 45.859375 -71.984375 C 46.535156 -74.785156 46.820312 -77.710938 46.71875 -80.765625 C 46.40625 -85.640625 44.785156 -89.128906 41.859375 -91.234375 C 38.941406 -93.335938 35.101562 -94.332031 30.34375 -94.21875 C 25.582031 -94.113281 20.300781 -93.140625 14.5 -91.296875 C 8.695312 -89.460938 2.753906 -87.035156 -3.328125 -84.015625 C -9.421875 -80.992188 -15.296875 -77.660156 -20.953125 -74.015625 C -26.609375 -70.367188 -31.640625 -66.671875 -36.046875 -62.921875 C -40.453125 -59.179688 -43.890625 -55.664062 -46.359375 -52.375 C -48.941406 -48.75 -51.140625 -44.765625 -52.953125 -40.421875 C -53.867188 -38.335938 -54.398438 -36.078125 -54.546875 -33.640625 C -54.597656 -33.148438 -54.835938 -32.785156 -55.265625 -32.546875 C -55.703125 -32.304688 -56.191406 -32.234375 -56.734375 -32.328125 C -57.578125 -32.597656 -58.109375 -33.265625 -58.328125 -34.328125 C -58.472656 -35.722656 -58.363281 -37.003906 -58 -38.171875 C -57.195312 -41.085938 -56.132812 -43.851562 -54.8125 -46.46875 C -52.363281 -51.03125 -48.648438 -55.691406 -43.671875 -60.453125 C -38.703125 -65.210938 -32.90625 -69.773438 -26.28125 -74.140625 C -19.65625 -78.503906 -12.742188 -82.394531 -5.546875 -85.8125 C 1.648438 -89.226562 8.691406 -91.882812 15.578125 -93.78125 C 22.472656 -95.6875 28.679688 -96.539062 34.203125 -96.34375 C 39.722656 -96.15625 44.078125 -94.640625 47.265625 -91.796875 C 50.453125 -88.953125 52 -84.472656 51.90625 -78.359375 C 51.738281 -74.421875 51.125 -70.675781 50.0625 -67.125 C 48.507812 -61.90625 46.722656 -56.859375 44.703125 -51.984375 C 42.691406 -47.117188 40.550781 -42.359375 38.28125 -37.703125 C 37.570312 -36.242188 37.414062 -35.53125 37.8125 -35.5625 C 38.21875 -35.601562 38.820312 -36.15625 39.625 -37.21875 C 42.5 -41.039062 45.375 -44.8125 48.25 -48.53125 C 50.207031 -51.019531 52.195312 -53.460938 54.21875 -55.859375 C 54.488281 -56.191406 54.753906 -56.515625 55.015625 -56.828125 C 56.179688 -58.253906 57.585938 -59.210938 59.234375 -59.703125 C 60.460938 -59.960938 61.5 -59.679688 62.34375 -58.859375 C 63.1875 -58.046875 63.476562 -56.816406 63.21875 -55.171875 C 63.164062 -55.003906 63.113281 -54.832031 63.0625 -54.65625 C 62.632812 -52.53125 62.128906 -50.46875 61.546875 -48.46875 C 60.003906 -43.5625 58.410156 -38.691406 56.765625 -33.859375 C 55.960938 -31.367188 55.164062 -28.84375 54.375 -26.28125 C 54.195312 -25.914062 53.953125 -25.25 53.640625 -24.28125 C 53.328125 -23.4375 53.023438 -22.601562 52.734375 -21.78125 C 52.453125 -20.957031 52.222656 -20.332031 52.046875 -19.90625 C 52.265625 -20.070312 54.234375 -22.28125 57.953125 -26.53125 C 63.003906 -32.332031 68.984375 -39.125 75.890625 -46.90625 C 82.804688 -54.6875 88.234375 -60.628906 92.171875 -64.734375 C 99.453125 -72.054688 107.117188 -78.71875 115.171875 -84.71875 C 123.234375 -90.726562 131.585938 -96.160156 140.234375 -101.015625 C 142.367188 -102.128906 144.554688 -103.132812 146.796875 -104.03125 C 147.285156 -104.195312 147.757812 -104.390625 148.21875 -104.609375 C 150.34375 -105.453125 152.601562 -105.765625 155 -105.546875 C 159.582031 -105.117188 161.679688 -102.222656 161.296875 -96.859375 C 161.035156 -93.515625 160.300781 -90.382812 159.09375 -87.46875 Z M 56.515625 -49.484375 C 56.628906 -49.378906 56.710938 -49.304688 56.765625 -49.265625 C 56.765625 -49.265625 56.765625 -49.238281 56.765625 -49.1875 C 56.804688 -49.1875 56.828125 -49.210938 56.828125 -49.265625 C 56.734375 -49.304688 56.628906 -49.378906 56.515625 -49.484375 Z M 56.515625 -49.484375 "/></g></g><g style="fill:#ffffff;fill-opacity:1;"><g transform="translate(196.559125, 147.028082)"><path style="stroke:none" d="M 26.296875 -18.46875 C 26.867188 -18.144531 26.910156 -17.351562 26.421875 -16.09375 C 25.722656 -15.175781 24.972656 -14.316406 24.171875 -13.515625 C 23.378906 -12.722656 22.507812 -12.007812 21.5625 -11.375 C 21.488281 -11.375 21.453125 -11.351562 21.453125 -11.3125 C 20.828125 -10.875 20.164062 -10.5 19.46875 -10.1875 C 13.6875 -8.101562 10.738281 -9.320312 10.625 -13.84375 C 8.28125 -11.8125 6.707031 -10.566406 5.90625 -10.109375 C 4 -8.972656 1.929688 -8.46875 -0.296875 -8.59375 C -1.929688 -8.6875 -3.046875 -9.1875 -3.640625 -10.09375 C -4.234375 -11 -4.179688 -12.226562 -3.484375 -13.78125 C -2.421875 -16.21875 -0.910156 -18.390625 1.046875 -20.296875 C 3.347656 -22.421875 5.898438 -24.125 8.703125 -25.40625 C 10.203125 -26.15625 11.769531 -26.445312 13.40625 -26.28125 C 15.050781 -26.1875 16.046875 -25.253906 16.390625 -23.484375 C 16.523438 -22.953125 16.390625 -22.484375 15.984375 -22.078125 C 15.453125 -21.585938 14.835938 -21.476562 14.140625 -21.75 C 14.085938 -21.75 14.019531 -21.757812 13.9375 -21.78125 C 13.851562 -21.8125 13.785156 -21.847656 13.734375 -21.890625 C 13.035156 -22.859375 12.328125 -23.265625 11.609375 -23.109375 C 10.898438 -22.953125 10.148438 -22.628906 9.359375 -22.140625 C 5.628906 -19.972656 2.859375 -16.941406 1.046875 -13.046875 C 0.953125 -12.878906 0.890625 -12.691406 0.859375 -12.484375 C 0.835938 -12.273438 0.898438 -12.113281 1.046875 -12 C 1.484375 -11.851562 1.96875 -11.878906 2.5 -12.078125 C 3.03125 -12.285156 3.5625 -12.585938 4.09375 -12.984375 C 4.625 -13.390625 5.070312 -13.722656 5.4375 -13.984375 C 5.488281 -14.054688 5.515625 -14.09375 5.515625 -14.09375 C 7.273438 -15.570312 9 -17.082031 10.6875 -18.625 C 11.4375 -19.425781 12.367188 -19.875 13.484375 -19.96875 C 15.078125 -19.96875 15.742188 -19.253906 15.484375 -17.828125 C 15.335938 -17.296875 15.175781 -16.765625 15 -16.234375 C 14.375 -13.941406 14.347656 -12.59375 14.921875 -12.1875 C 15.503906 -11.789062 16.394531 -11.789062 17.59375 -12.1875 C 18.789062 -12.59375 19.988281 -13.359375 21.1875 -14.484375 C 22.382812 -15.609375 23.394531 -16.632812 24.21875 -17.5625 C 25.039062 -18.488281 25.734375 -18.789062 26.296875 -18.46875 Z M 26.296875 -18.46875 "/></g></g><g style="fill:#ffffff;fill-opacity:1;"><g transform="translate(220.586349, 147.028082)"><path style="stroke:none" d="M 22.65625 -17.5 C 19.414062 -13.6875 16.242188 -10.875 13.140625 -9.0625 C 10.035156 -7.25 6.710938 -6.648438 3.171875 -7.265625 C -0.367188 -7.878906 -1.828125 -10.253906 -1.203125 -14.390625 C -0.765625 -16.460938 -0.171875 -18.492188 0.578125 -20.484375 C 2.441406 -25.097656 4.328125 -29.6875 6.234375 -34.25 C 6.859375 -35.894531 7.523438 -37.550781 8.234375 -39.21875 C 8.398438 -39.582031 8.554688 -39.945312 8.703125 -40.3125 C 8.960938 -40.914062 9.226562 -41.53125 9.5 -42.15625 C 9.882812 -43.21875 9.460938 -43.773438 8.234375 -43.828125 C 7.523438 -43.828125 6.832031 -43.828125 6.15625 -43.828125 C 5.84375 -43.828125 5.492188 -43.828125 5.109375 -43.828125 C 4.742188 -43.773438 4.367188 -43.722656 3.984375 -43.671875 C 3.359375 -43.628906 2.738281 -43.609375 2.125 -43.609375 C 1.507812 -43.609375 0.9375 -43.765625 0.40625 -44.078125 C 0.257812 -44.128906 0.140625 -44.21875 0.046875 -44.34375 C -0.0351562 -44.476562 -0.078125 -44.628906 -0.078125 -44.796875 C -0.0234375 -44.898438 0.0507812 -45.015625 0.15625 -45.140625 C 0.269531 -45.273438 0.410156 -45.367188 0.578125 -45.421875 C 1.109375 -45.640625 1.664062 -45.796875 2.25 -45.890625 C 3.75 -45.960938 5.234375 -46.019531 6.703125 -46.0625 C 7.285156 -46.0625 7.796875 -46.0625 8.234375 -46.0625 C 9.191406 -46.0625 9.90625 -46.097656 10.375 -46.171875 C 10.851562 -46.242188 11.238281 -46.5 11.53125 -46.9375 C 11.820312 -47.375 12.160156 -48.039062 12.546875 -48.9375 C 12.765625 -49.414062 13.03125 -49.945312 13.34375 -50.53125 C 14.132812 -52.21875 14.929688 -53.945312 15.734375 -55.71875 C 16.097656 -56.507812 16.472656 -57.28125 16.859375 -58.03125 C 17.171875 -58.78125 17.664062 -59.359375 18.34375 -59.765625 C 18.988281 -60.085938 19.554688 -60.066406 20.046875 -59.703125 C 20.191406 -59.597656 20.304688 -59.4375 20.390625 -59.21875 C 20.472656 -59.007812 20.515625 -58.816406 20.515625 -58.640625 C 20.515625 -57.703125 20.273438 -56.773438 19.796875 -55.859375 C 19.691406 -55.660156 19.582031 -55.429688 19.46875 -55.171875 C 19.15625 -54.296875 18.816406 -53.410156 18.453125 -52.515625 C 17.753906 -50.878906 17.085938 -49.203125 16.453125 -47.484375 C 16.285156 -47.171875 16.28125 -46.890625 16.4375 -46.640625 C 16.59375 -46.398438 16.828125 -46.28125 17.140625 -46.28125 C 18.859375 -46.238281 20.539062 -46.21875 22.1875 -46.21875 C 23.03125 -46.21875 23.875 -46.21875 24.71875 -46.21875 C 27.375 -46.164062 28.4375 -45.789062 27.90625 -45.09375 C 27.539062 -44.675781 27.144531 -44.4375 26.71875 -44.375 C 26.300781 -44.320312 25.878906 -44.332031 25.453125 -44.40625 C 25.179688 -44.40625 24.910156 -44.40625 24.640625 -44.40625 C 21.941406 -44.238281 19.257812 -44.128906 16.59375 -44.078125 C 15.363281 -44.078125 14.546875 -43.519531 14.140625 -42.40625 C 13.703125 -41.34375 13.28125 -40.28125 12.875 -39.21875 C 12.269531 -37.820312 11.703125 -36.457031 11.171875 -35.125 C 10.628906 -33.863281 10.09375 -32.59375 9.5625 -31.3125 C 8.1875 -28.070312 6.859375 -24.820312 5.578125 -21.5625 C 4.785156 -19.4375 4.160156 -17.265625 3.703125 -15.046875 C 2.679688 -11.003906 4.238281 -9.457031 8.375 -10.40625 C 12.4375 -11.375 16.6875 -14.296875 21.125 -19.171875 C 23.0625 -20.398438 23.570312 -19.84375 22.65625 -17.5 Z M 22.65625 -17.5 "/></g></g><g style="fill:#ffffff;fill-opacity:1;"><g transform="translate(241.17075, 147.028082)"><path style="stroke:none" d="M 29.4375 -16.890625 C 29 -16.503906 28.539062 -16.15625 28.0625 -15.84375 C 26.507812 -14.875 25.109375 -14.109375 23.859375 -13.546875 C 22.617188 -12.992188 21.15625 -12.429688 19.46875 -11.859375 C 16.945312 -11.109375 15.332031 -11.273438 14.625 -12.359375 C 13.914062 -13.441406 13.800781 -14.953125 14.28125 -16.890625 C 14.957031 -19.640625 15.347656 -21.65625 15.453125 -22.9375 C 15.566406 -24.21875 15.144531 -24.660156 14.1875 -24.265625 C 13.238281 -23.867188 11.503906 -22.546875 8.984375 -20.296875 C 5.484375 -17.273438 2.488281 -13.820312 0 -9.9375 C -0.3125 -9.40625 -0.695312 -8.96875 -1.15625 -8.625 C -1.613281 -8.289062 -2.179688 -8.125 -2.859375 -8.125 C -3.515625 -8.125 -3.988281 -8.289062 -4.28125 -8.625 C -4.570312 -8.96875 -4.582031 -9.425781 -4.3125 -10 C -2.882812 -13.144531 -1.421875 -16.265625 0.078125 -19.359375 C 2.640625 -24.722656 5.160156 -30.0625 7.640625 -35.375 C 9.503906 -39.363281 11.34375 -43.351562 13.15625 -47.34375 C 14.269531 -49.6875 15.359375 -52.03125 16.421875 -54.375 C 16.515625 -54.5625 16.625 -54.765625 16.75 -54.984375 C 16.84375 -55.253906 16.957031 -55.519531 17.09375 -55.78125 C 17.226562 -56.050781 17.378906 -56.34375 17.546875 -56.65625 C 17.691406 -56.914062 17.960938 -57.128906 18.359375 -57.296875 C 18.753906 -57.472656 19.148438 -57.582031 19.546875 -57.625 C 19.953125 -57.675781 20.265625 -57.65625 20.484375 -57.5625 C 20.796875 -57.34375 20.96875 -57.113281 21 -56.875 C 21.039062 -56.632812 21 -56.378906 20.875 -56.109375 C 20.832031 -56.054688 20.8125 -55.972656 20.8125 -55.859375 C 20.320312 -54.429688 19.8125 -53.050781 19.28125 -51.71875 C 16.21875 -44.332031 12.875 -37.050781 9.25 -29.875 C 8.976562 -29.382812 8.660156 -28.800781 8.296875 -28.125 C 7.765625 -27.15625 7.269531 -26.207031 6.8125 -25.28125 C 6.351562 -24.351562 6.203125 -23.726562 6.359375 -23.40625 C 6.515625 -23.09375 7.234375 -23.335938 8.515625 -24.140625 C 8.898438 -24.410156 9.25 -24.675781 9.5625 -24.9375 C 10.582031 -25.613281 11.585938 -26.253906 12.578125 -26.859375 C 13.441406 -27.441406 14.410156 -27.753906 15.484375 -27.796875 C 18.015625 -27.972656 19.4375 -26.828125 19.75 -24.359375 C 19.875 -23.367188 19.835938 -22.390625 19.640625 -21.421875 C 19.453125 -20.453125 19.222656 -19.5 18.953125 -18.5625 C 18.910156 -18.289062 18.863281 -18.023438 18.8125 -17.765625 C 18.375 -16.117188 18.488281 -15.175781 19.15625 -14.9375 C 19.820312 -14.695312 20.75 -14.828125 21.9375 -15.328125 C 23.132812 -15.835938 24.351562 -16.457031 25.59375 -17.1875 C 26.4375 -17.613281 27.175781 -17.984375 27.8125 -18.296875 C 28.457031 -18.617188 28.9375 -18.753906 29.25 -18.703125 C 29.832031 -18.609375 30.097656 -18.375 30.046875 -18 C 29.992188 -17.625 29.789062 -17.253906 29.4375 -16.890625 Z M 29.4375 -16.890625 "/></g></g><g style="fill:#ffffff;fill-opacity:1;"><g transform="translate(268.82199, 147.028082)"><path style="stroke:none" d="M 14.40625 -15.265625 C 13.113281 -13.734375 11.582031 -12.328125 9.8125 -11.046875 C 8.050781 -9.773438 6.054688 -8.914062 3.828125 -8.46875 C 1.609375 -8.019531 -0.113281 -8.179688 -1.34375 -8.953125 C -2.570312 -9.722656 -2.8125 -11.4375 -2.0625 -14.09375 C -1.09375 -16.851562 0.234375 -19.476562 1.921875 -21.96875 C 2.304688 -22.5 2.863281 -22.875 3.59375 -23.09375 C 4.125 -23.207031 4.585938 -23.113281 4.984375 -22.8125 C 5.378906 -22.507812 5.53125 -22.128906 5.4375 -21.671875 C 5.070312 -20.804688 4.671875 -19.9375 4.234375 -19.0625 C 3.804688 -18.195312 3.519531 -17.628906 3.375 -17.359375 C 2.53125 -15.816406 1.9375 -14.195312 1.59375 -12.5 C 1.59375 -11.539062 2.882812 -11.484375 5.46875 -12.328125 C 8.0625 -13.171875 10.578125 -14.722656 13.015625 -16.984375 C 15.453125 -19.242188 16.613281 -19.90625 16.5 -18.96875 C 16.394531 -18.039062 15.695312 -16.804688 14.40625 -15.265625 Z M 8.078125 -27.40625 C 7.960938 -27.3125 7.71875 -27.195312 7.34375 -27.0625 C 6.96875 -26.925781 6.566406 -26.828125 6.140625 -26.765625 C 5.722656 -26.703125 5.390625 -26.769531 5.140625 -26.96875 C 4.898438 -27.164062 4.890625 -27.550781 5.109375 -28.125 C 5.492188 -29.144531 5.894531 -30.035156 6.3125 -30.796875 C 6.738281 -31.554688 7.289062 -32.394531 7.96875 -33.3125 C 8.40625 -33.71875 8.878906 -33.9375 9.390625 -33.96875 C 9.898438 -34.007812 10.320312 -33.878906 10.65625 -33.578125 C 11 -33.273438 11.097656 -32.859375 10.953125 -32.328125 C 10.421875 -30.421875 9.460938 -28.78125 8.078125 -27.40625 Z M 8.078125 -27.40625 "/></g></g><g style="fill:#ffffff;fill-opacity:1;"><g transform="translate(282.955645, 147.028082)"><path style="stroke:none" d="M 17.546875 -18.375 C 13.722656 -16.945312 10.96875 -15.785156 9.28125 -14.890625 C 8.050781 -14.285156 7.34375 -13.785156 7.15625 -13.390625 C 6.976562 -12.992188 7.117188 -12.265625 7.578125 -11.203125 C 7.578125 -11.148438 7.613281 -11.078125 7.6875 -10.984375 C 8.21875 -9.703125 8.53125 -8.375 8.625 -7 C 8.789062 -4.21875 6.425781 -2.269531 1.53125 -1.15625 C -3.351562 -0.0507812 -6.625 -0.015625 -8.28125 -1.046875 C -9.9375 -2.085938 -10.441406 -3.40625 -9.796875 -5 C -9.160156 -6.59375 -7.5 -8.210938 -4.8125 -9.859375 C -2.132812 -11.503906 -0.34375 -12.6875 0.5625 -13.40625 C 1.46875 -14.132812 1.738281 -14.945312 1.375 -15.84375 C 1.257812 -16.15625 1.128906 -16.46875 0.984375 -16.78125 C 0.660156 -17.53125 0.332031 -18.304688 0 -19.109375 C -0.625 -20.554688 -0.894531 -21.976562 -0.8125 -23.375 C -0.726562 -24.78125 -0.210938 -25.957031 0.734375 -26.90625 C 1.691406 -27.863281 3.175781 -28.378906 5.1875 -28.453125 C 6.320312 -28.503906 7.332031 -28.351562 8.21875 -28 C 9.113281 -27.644531 9.828125 -27 10.359375 -26.0625 C 10.796875 -25.40625 10.664062 -24.8125 9.96875 -24.28125 C 9.507812 -23.914062 9.015625 -23.867188 8.484375 -24.140625 C 8.140625 -24.285156 7.8125 -24.488281 7.5 -24.75 C 7.5 -24.820312 7.5 -24.859375 7.5 -24.859375 C 7.351562 -24.960938 7.222656 -25.0625 7.109375 -25.15625 C 6.960938 -25.375 6.804688 -25.539062 6.640625 -25.65625 C 6.003906 -26.125 5.363281 -26.265625 4.71875 -26.078125 C 4.082031 -25.898438 3.609375 -25.410156 3.296875 -24.609375 C 3.078125 -23.984375 2.96875 -23.34375 2.96875 -22.6875 C 3.019531 -21.894531 3.203125 -21.125 3.515625 -20.375 C 3.734375 -19.914062 3.925781 -19.492188 4.09375 -19.109375 C 4.507812 -18.035156 4.847656 -17.300781 5.109375 -16.90625 C 5.378906 -16.507812 5.703125 -16.34375 6.078125 -16.40625 C 6.453125 -16.46875 9.875 -17.691406 16.34375 -20.078125 C 17.75 -20.535156 18.148438 -19.96875 17.546875 -18.375 Z M 1.84375 -4.53125 C 3.539062 -5.113281 4.253906 -6.25 3.984375 -7.9375 C 3.984375 -8.0625 3.960938 -8.195312 3.921875 -8.34375 C 3.816406 -9.257812 3.617188 -9.960938 3.328125 -10.453125 C 3.046875 -10.953125 2.394531 -10.9375 1.375 -10.40625 C -1.132812 -8.976562 -3.453125 -7.3125 -5.578125 -5.40625 C -5.722656 -5.226562 -5.859375 -5.066406 -5.984375 -4.921875 C -5.984375 -4.921875 -6.003906 -4.890625 -6.046875 -4.828125 C -6.191406 -4.628906 -6.21875 -4.410156 -6.125 -4.171875 C -6.03125 -3.929688 -5.8125 -3.8125 -5.46875 -3.8125 C -2.976562 -3.414062 -0.539062 -3.65625 1.84375 -4.53125 Z M 1.84375 -4.53125 "/></g></g><g style="fill:#ffffff;fill-opacity:1;"><g transform="translate(299.010038, 147.028082)"><path style="stroke:none" d="M 20.65625 -13.921875 C 19.257812 -12.546875 17.628906 -11.367188 15.765625 -10.390625 C 13.898438 -9.410156 12.335938 -8.769531 11.078125 -8.46875 C 9.828125 -8.164062 8.539062 -7.988281 7.21875 -7.9375 C 5.09375 -7.84375 3.132812 -8.132812 1.34375 -8.8125 C -1.582031 -9.988281 -2.597656 -12.25 -1.703125 -15.59375 C -0.859375 -18.46875 0.851562 -20.710938 3.4375 -22.328125 C 6.03125 -23.941406 8.703125 -24.726562 11.453125 -24.6875 C 11.453125 -24.6875 11.476562 -24.6875 11.53125 -24.6875 C 12.226562 -24.726562 12.890625 -24.679688 13.515625 -24.546875 C 14.578125 -24.148438 15.253906 -23.515625 15.546875 -22.640625 C 15.835938 -21.773438 15.644531 -20.8125 14.96875 -19.75 C 13.425781 -17.40625 11.320312 -16.101562 8.65625 -15.84375 C 6.894531 -15.675781 5.191406 -15.757812 3.546875 -16.09375 C 3.234375 -16.144531 2.957031 -16.0625 2.71875 -15.84375 C 2.476562 -15.625 2.332031 -15.359375 2.28125 -15.046875 C 1.800781 -12.960938 2.441406 -11.632812 4.203125 -11.0625 C 6.378906 -10.3125 8.640625 -10.3125 10.984375 -11.0625 C 13.691406 -11.90625 16.265625 -13.5 18.703125 -15.84375 C 21.140625 -18.1875 22.546875 -19.28125 22.921875 -19.125 C 23.296875 -18.96875 23.410156 -18.515625 23.265625 -17.765625 C 22.929688 -16.578125 22.0625 -15.296875 20.65625 -13.921875 Z M 5.21875 -19.75 C 5.070312 -19.582031 4.96875 -19.394531 4.90625 -19.1875 C 4.851562 -18.988281 4.929688 -18.800781 5.140625 -18.625 C 5.992188 -18.144531 6.914062 -17.972656 7.90625 -18.109375 C 8.894531 -18.242188 9.734375 -18.617188 10.421875 -19.234375 C 11.109375 -19.847656 11.40625 -20.601562 11.3125 -21.5 C 11.238281 -21.8125 11.066406 -22.007812 10.796875 -22.09375 C 10.535156 -22.175781 10.269531 -22.191406 10 -22.140625 C 8.21875 -21.828125 6.625 -21.03125 5.21875 -19.75 Z M 5.21875 -19.75 "/></g></g></g><mask id="d9a89a8af8"><g filter="url(#e6297357eb)"><rect x="0" width="375" y="0" height="225" style="fill:#000000;fill-opacity:0.9;stroke:none;"/></g></mask></g><g style="fill:#ffffff;fill-opacity:1;"><g transform="translate(180.341784, 200.694494)"><path style="stroke:none" d="M 3.203125 -10.796875 C 3.203125 -10.210938 3.425781 -9.675781 3.875 -9.1875 C 4.332031 -8.695312 4.882812 -8.265625 5.53125 -7.890625 C 6.1875 -7.515625 6.835938 -7.128906 7.484375 -6.734375 C 8.128906 -6.347656 8.675781 -5.867188 9.125 -5.296875 C 9.582031 -4.734375 9.8125 -4.113281 9.8125 -3.4375 C 9.8125 -2.351562 9.410156 -1.46875 8.609375 -0.78125 C 7.816406 -0.101562 6.742188 0.234375 5.390625 0.234375 C 4.035156 0.234375 2.691406 -0.0195312 1.359375 -0.53125 L 1.359375 -1.453125 C 2.703125 -0.785156 3.84375 -0.453125 4.78125 -0.453125 C 5.726562 -0.453125 6.460938 -0.679688 6.984375 -1.140625 C 7.515625 -1.597656 7.78125 -2.238281 7.78125 -3.0625 C 7.78125 -3.613281 7.5625 -4.113281 7.125 -4.5625 C 6.6875 -5.019531 6.160156 -5.414062 5.546875 -5.75 C 4.929688 -6.082031 4.3125 -6.425781 3.6875 -6.78125 C 3.070312 -7.144531 2.546875 -7.597656 2.109375 -8.140625 C 1.671875 -8.679688 1.453125 -9.335938 1.453125 -10.109375 C 1.453125 -10.890625 1.796875 -11.613281 2.484375 -12.28125 C 3.179688 -12.957031 4.210938 -13.296875 5.578125 -13.296875 C 6.472656 -13.296875 7.609375 -13.09375 8.984375 -12.6875 L 8.78125 -11.34375 C 7.007812 -12.101562 5.488281 -12.484375 4.21875 -12.484375 C 3.539062 -12.160156 3.203125 -11.597656 3.203125 -10.796875 Z M 3.203125 -10.796875 "/></g></g><g style="fill:#ffffff;fill-opacity:1;"><g transform="translate(191.315974, 200.694494)"><path style="stroke:none" d="M 3.6875 -6.46875 L 3.6875 0 L 1.78125 0 L 1.78125 -13.0625 L 3.6875 -13.0625 L 3.6875 -7.21875 L 9.671875 -7.21875 L 9.671875 -13.0625 L 11.578125 -13.0625 L 11.578125 0 L 9.671875 0 L 9.671875 -6.46875 Z M 3.6875 -6.46875 "/></g></g><g style="fill:#ffffff;fill-opacity:1;"><g transform="translate(204.678414, 200.694494)"><path style="stroke:none" d="M 7.71875 -13.296875 C 9.425781 -13.296875 10.835938 -12.734375 11.953125 -11.609375 C 13.078125 -10.484375 13.640625 -8.921875 13.640625 -6.921875 C 13.640625 -5.640625 13.414062 -4.515625 12.96875 -3.546875 C 12.519531 -2.578125 11.929688 -1.828125 11.203125 -1.296875 C 9.796875 -0.273438 8.242188 0.234375 6.546875 0.234375 C 4.847656 0.234375 3.441406 -0.332031 2.328125 -1.46875 C 1.222656 -2.601562 0.671875 -4.171875 0.671875 -6.171875 C 0.671875 -7.210938 0.816406 -8.148438 1.109375 -8.984375 C 1.410156 -9.816406 1.800781 -10.5 2.28125 -11.03125 C 2.757812 -11.5625 3.316406 -12.003906 3.953125 -12.359375 C 5.109375 -12.984375 6.363281 -13.296875 7.71875 -13.296875 Z M 3.75 -2.25 C 4.09375 -1.664062 4.550781 -1.210938 5.125 -0.890625 C 5.707031 -0.578125 6.375 -0.421875 7.125 -0.421875 C 7.882812 -0.421875 8.5625 -0.609375 9.15625 -0.984375 C 9.75 -1.367188 10.207031 -1.867188 10.53125 -2.484375 C 11.207031 -3.722656 11.546875 -5.050781 11.546875 -6.46875 C 11.546875 -8.21875 11.195312 -9.628906 10.5 -10.703125 C 9.71875 -11.890625 8.4375 -12.484375 6.65625 -12.484375 C 5.375 -12.046875 4.40625 -11.28125 3.75 -10.1875 C 3.09375 -9.09375 2.765625 -7.851562 2.765625 -6.46875 C 2.765625 -4.789062 3.09375 -3.382812 3.75 -2.25 Z M 3.75 -2.25 "/></g></g><g style="fill:#ffffff;fill-opacity:1;"><g transform="translate(218.988277, 200.694494)"><path style="stroke:none" d="M 10.5625 -9.671875 C 10.5625 -8.410156 10.097656 -7.453125 9.171875 -6.796875 C 8.242188 -6.148438 6.984375 -5.828125 5.390625 -5.828125 L 3.6875 -5.828125 L 3.6875 0 L 1.78125 0 L 1.78125 -13.0625 L 6.015625 -13.0625 C 7.347656 -13.0625 8.4375 -12.757812 9.28125 -12.15625 C 10.132812 -11.550781 10.5625 -10.722656 10.5625 -9.671875 Z M 3.6875 -6.390625 L 5.453125 -6.390625 C 6.066406 -6.390625 6.59375 -6.507812 7.03125 -6.75 C 7.476562 -6.988281 7.800781 -7.289062 8 -7.65625 C 8.351562 -8.3125 8.53125 -8.953125 8.53125 -9.578125 C 8.53125 -9.878906 8.445312 -10.238281 8.28125 -10.65625 C 7.96875 -11.519531 7.316406 -12.085938 6.328125 -12.359375 C 5.378906 -12.359375 4.5 -12.242188 3.6875 -12.015625 Z M 3.6875 -6.390625 "/></g></g><path style="fill:none;stroke-width:1;stroke-linecap:butt;stroke-linejoin:miter;stroke:#ffffff;stroke-opacity:1;stroke-miterlimit:4;" d="M 0.000623564 0.500805 L 25.290588 0.500805 " transform="matrix(1.439708,0,0,1.439708,245.99129,193.302424)"/><path style="fill:none;stroke-width:1;stroke-linecap:butt;stroke-linejoin:miter;stroke:#ffffff;stroke-opacity:1;stroke-miterlimit:4;" d="M 0.000129682 0.499619 L 25.290094 0.499619 " transform="matrix(1.439708,0,0,1.439708,127.296688,192.561945)"/></g></svg>