<svg xmlns="http://www.w3.org/2000/svg" xmlns:xlink="http://www.w3.org/1999/xlink" width="500" zoomAndPan="magnify" viewBox="0 0 375 149.999998" height="200" preserveAspectRatio="xMidYMid meet" version="1.2"><defs><filter x="0%" y="0%" width="100%" filterUnits="objectBoundingBox" id="7e1635ac49" height="100%"><feColorMatrix values="0 0 0 0 1 0 0 0 0 1 0 0 0 0 1 0 0 0 1 0" type="matrix" in="SourceGraphic"/></filter><clipPath id="48e6e3f83c"><rect x="0" width="137" y="0" height="150"/></clipPath><clipPath id="27b85d0953"><rect x="0" width="274" y="0" height="150"/></clipPath></defs><g id="f0946390e5"><g mask="url(#72b6d4e8b8)" transform="matrix(1,0,0,1,134,-0.000000000000007527)"><g clip-path="url(#48e6e3f83c)"><g style="fill:#ffd700;fill-opacity:1;"><g transform="translate(1.072183, 110.342441)"><path style="stroke:none" d="M 5.453125 0 C 4.117188 0 3.226562 -0.753906 2.78125 -2.265625 C 2.34375 -3.773438 2.703125 -4.925781 3.859375 -5.71875 C 4.484375 -6.164062 5.367188 -6.695312 6.515625 -7.3125 C 8.910156 -8.5625 10.109375 -10.46875 10.109375 -13.03125 L 12.640625 -84.484375 C 12.367188 -86.609375 11.21875 -88.160156 9.1875 -89.140625 C 8.03125 -89.765625 7.140625 -90.296875 6.515625 -90.734375 C 5.367188 -91.535156 5.015625 -92.6875 5.453125 -94.1875 C 5.898438 -95.695312 6.785156 -96.453125 8.109375 -96.453125 L 42.84375 -96.453125 C 45.414062 -96.453125 47.234375 -95.210938 48.296875 -92.734375 L 69.3125 -40.71875 L 88.46875 -92.734375 C 89.539062 -95.210938 91.363281 -96.453125 93.9375 -96.453125 L 126.125 -96.453125 C 127.539062 -96.453125 128.492188 -95.695312 128.984375 -94.1875 C 129.472656 -92.6875 129.140625 -91.535156 127.984375 -90.734375 C 127.628906 -90.472656 127.253906 -90.207031 126.859375 -89.9375 C 126.460938 -89.675781 126.039062 -89.457031 125.59375 -89.28125 C 123.550781 -87.945312 122.441406 -86.125 122.265625 -83.8125 L 125.734375 -13.03125 C 125.734375 -10.644531 126.84375 -8.695312 129.0625 -7.1875 C 129.5 -7.007812 129.914062 -6.785156 130.3125 -6.515625 C 130.71875 -6.253906 131.097656 -5.988281 131.453125 -5.71875 C 132.609375 -4.925781 132.941406 -3.773438 132.453125 -2.265625 C 131.960938 -0.753906 131.007812 0 129.59375 0 L 88.46875 0 C 87.144531 0 86.257812 -0.753906 85.8125 -2.265625 C 85.375 -3.773438 85.6875 -4.925781 86.75 -5.71875 C 87.1875 -5.988281 87.628906 -6.253906 88.078125 -6.515625 C 88.523438 -6.785156 88.96875 -7.050781 89.40625 -7.3125 C 90.5625 -7.84375 91.445312 -8.640625 92.0625 -9.703125 C 92.6875 -10.773438 93.039062 -11.882812 93.125 -13.03125 L 90.078125 -73.578125 L 65.1875 -3.71875 C 64.125 -1.238281 62.351562 0 59.875 0 L 53.625 0 C 51.050781 0 49.226562 -1.238281 48.15625 -3.71875 L 21.546875 -73.96875 L 19.421875 -13.03125 C 19.335938 -11.882812 19.625 -10.800781 20.28125 -9.78125 C 20.945312 -8.757812 21.816406 -7.894531 22.890625 -7.1875 C 23.242188 -7.007812 23.617188 -6.785156 24.015625 -6.515625 C 24.410156 -6.253906 24.785156 -5.988281 25.140625 -5.71875 C 26.296875 -4.925781 26.648438 -3.773438 26.203125 -2.265625 C 25.765625 -0.753906 24.835938 0 23.421875 0 Z M 5.453125 0 "/></g></g></g><mask id="72b6d4e8b8"><g filter="url(#7e1635ac49)"><rect x="0" width="375" y="0" height="149.999998" style="fill:#000000;fill-opacity:0.57;stroke:none;"/></g></mask></g><g mask="url(#49dc441a2f)" transform="matrix(1,0,0,1,43,-0.000000000000007527)"><g clip-path="url(#27b85d0953)"><g style="fill:#030303;fill-opacity:1;"><g transform="translate(50.50112, 105.700798)"><path style="stroke:none" d="M 133.5 -73.40625 C 133.363281 -73.039062 133.222656 -72.671875 133.078125 -72.296875 C 131.660156 -68.609375 130.128906 -64.984375 128.484375 -61.421875 C 120.003906 -43.796875 110.898438 -26.75 101.171875 -10.28125 C 98.003906 -4.96875 94.769531 0.25 91.46875 5.375 C 88.164062 10.507812 84.835938 15.625 81.484375 20.71875 C 80.691406 21.914062 79.894531 23.109375 79.09375 24.296875 C 79.050781 24.398438 79.007812 24.472656 78.96875 24.515625 C 78.78125 24.878906 78.566406 25.179688 78.328125 25.421875 C 78.085938 25.671875 77.765625 25.796875 77.359375 25.796875 C 77.171875 25.796875 76.972656 25.75 76.765625 25.65625 C 76.566406 25.5625 76.410156 25.445312 76.296875 25.3125 C 76.191406 25.1875 76.117188 24.984375 76.078125 24.703125 C 76.035156 24.429688 76.054688 24.21875 76.140625 24.0625 C 76.679688 22.882812 77.289062 21.769531 77.96875 20.71875 C 79.46875 18.257812 80.976562 15.804688 82.5 13.359375 C 85.351562 8.796875 88.160156 4.222656 90.921875 -0.359375 C 97.046875 -10.585938 102.894531 -21.023438 108.46875 -31.671875 C 114.050781 -42.316406 119.5 -53.070312 124.8125 -63.9375 C 126.9375 -68.132812 128.6875 -72.628906 130.0625 -77.421875 C 130.351562 -78.242188 130.570312 -79.101562 130.71875 -80 C 130.875 -80.894531 130.953125 -81.816406 130.953125 -82.765625 C 130.804688 -84.816406 129.929688 -85.707031 128.328125 -85.4375 C 126.910156 -85.15625 125.570312 -84.710938 124.3125 -84.109375 C 121.332031 -82.671875 118.394531 -81.078125 115.5 -79.328125 C 99.925781 -69.878906 85.738281 -58.148438 72.9375 -44.140625 C 72.757812 -43.910156 72.554688 -43.6875 72.328125 -43.46875 C 67.910156 -38.664062 63.523438 -33.816406 59.171875 -28.921875 C 54.828125 -24.035156 50.609375 -19.007812 46.515625 -13.84375 C 45.660156 -12.769531 44.765625 -11.765625 43.828125 -10.828125 C 42.835938 -9.796875 41.65625 -9.390625 40.28125 -9.609375 C 39.6875 -9.691406 39.203125 -9.976562 38.828125 -10.46875 C 38.453125 -10.96875 38.304688 -11.554688 38.390625 -12.234375 C 38.671875 -14.054688 39.078125 -15.816406 39.609375 -17.515625 C 41.242188 -22.910156 42.988281 -28.234375 44.84375 -33.484375 C 45.101562 -34.296875 45.34375 -35.078125 45.5625 -35.828125 C 46.050781 -37.796875 46.742188 -39.613281 47.640625 -41.28125 C 47.640625 -41.320312 47.617188 -41.34375 47.578125 -41.34375 C 47.347656 -41.457031 47.125 -41.550781 46.90625 -41.625 C 46.6875 -41.695312 46.460938 -41.625 46.234375 -41.40625 C 45.421875 -40.507812 44.640625 -39.570312 43.890625 -38.59375 C 37.722656 -30.238281 31.617188 -21.8125 25.578125 -13.3125 C 19.535156 -4.820312 13.632812 3.8125 7.875 12.59375 C 7.382812 13.445312 6.84375 14.140625 6.25 14.671875 C 5.65625 15.210938 4.859375 15.390625 3.859375 15.203125 C 3.410156 15.085938 3.066406 14.816406 2.828125 14.390625 C 2.585938 13.960938 2.535156 13.546875 2.671875 13.140625 C 3.203125 11.941406 3.78125 10.804688 4.40625 9.734375 C 6.195312 6.648438 7.960938 3.566406 9.703125 0.484375 C 13.210938 -5.617188 16.691406 -11.753906 20.140625 -17.921875 C 25.492188 -27.367188 30.269531 -37.3125 34.46875 -47.75 C 36.101562 -51.769531 37.441406 -55.988281 38.484375 -60.40625 C 39.046875 -62.757812 39.285156 -65.210938 39.203125 -67.765625 C 38.941406 -71.867188 37.582031 -74.800781 35.125 -76.5625 C 32.675781 -78.320312 29.453125 -79.15625 25.453125 -79.0625 C 21.460938 -78.976562 17.03125 -78.164062 12.15625 -76.625 C 7.289062 -75.082031 2.304688 -73.039062 -2.796875 -70.5 C -7.910156 -67.96875 -12.835938 -65.171875 -17.578125 -62.109375 C -22.328125 -59.046875 -26.550781 -55.941406 -30.25 -52.796875 C -33.945312 -49.660156 -36.832031 -46.710938 -38.90625 -43.953125 C -41.070312 -40.910156 -42.914062 -37.566406 -44.4375 -33.921875 C -45.207031 -32.171875 -45.65625 -30.273438 -45.78125 -28.234375 C -45.820312 -27.828125 -46.023438 -27.519531 -46.390625 -27.3125 C -46.753906 -27.113281 -47.160156 -27.054688 -47.609375 -27.140625 C -48.316406 -27.359375 -48.757812 -27.914062 -48.9375 -28.8125 C -49.0625 -29.988281 -48.972656 -31.0625 -48.671875 -32.03125 C -48.003906 -34.488281 -47.113281 -36.8125 -46 -39 C -43.945312 -42.832031 -40.832031 -46.742188 -36.65625 -50.734375 C -32.476562 -54.734375 -27.609375 -58.5625 -22.046875 -62.21875 C -16.492188 -65.882812 -10.695312 -69.148438 -4.65625 -72.015625 C 1.382812 -74.878906 7.296875 -77.109375 13.078125 -78.703125 C 18.859375 -80.296875 24.066406 -81.007812 28.703125 -80.84375 C 33.335938 -80.6875 36.992188 -79.414062 39.671875 -77.03125 C 42.347656 -74.644531 43.644531 -70.890625 43.5625 -65.765625 C 43.414062 -62.460938 42.894531 -59.316406 42 -56.328125 C 40.707031 -51.953125 39.210938 -47.71875 37.515625 -43.625 C 35.828125 -39.539062 34.03125 -35.546875 32.125 -31.640625 C 31.53125 -30.421875 31.398438 -29.828125 31.734375 -29.859375 C 32.078125 -29.890625 32.582031 -30.347656 33.25 -31.234375 C 35.65625 -34.441406 38.066406 -37.609375 40.484375 -40.734375 C 42.128906 -42.816406 43.800781 -44.863281 45.5 -46.875 C 45.726562 -47.15625 45.953125 -47.429688 46.171875 -47.703125 C 47.148438 -48.890625 48.328125 -49.6875 49.703125 -50.09375 C 50.734375 -50.320312 51.601562 -50.085938 52.3125 -49.390625 C 53.03125 -48.703125 53.273438 -47.671875 53.046875 -46.296875 C 53.003906 -46.148438 52.960938 -46.007812 52.921875 -45.875 C 52.554688 -44.082031 52.132812 -42.347656 51.65625 -40.671875 C 50.351562 -36.554688 49.015625 -32.46875 47.640625 -28.40625 C 46.960938 -26.320312 46.289062 -24.203125 45.625 -22.046875 C 45.488281 -21.742188 45.285156 -21.1875 45.015625 -20.375 C 44.753906 -19.664062 44.5 -18.96875 44.25 -18.28125 C 44.007812 -17.59375 43.820312 -17.066406 43.6875 -16.703125 C 43.863281 -16.835938 45.515625 -18.691406 48.640625 -22.265625 C 52.878906 -27.128906 57.894531 -32.828125 63.6875 -39.359375 C 69.488281 -45.890625 74.046875 -50.878906 77.359375 -54.328125 C 83.460938 -60.472656 89.894531 -66.0625 96.65625 -71.09375 C 103.414062 -76.132812 110.425781 -80.695312 117.6875 -84.78125 C 119.46875 -85.707031 121.300781 -86.546875 123.1875 -87.296875 C 123.59375 -87.441406 123.988281 -87.601562 124.375 -87.78125 C 126.164062 -88.5 128.0625 -88.765625 130.0625 -88.578125 C 133.914062 -88.210938 135.679688 -85.78125 135.359375 -81.28125 C 135.140625 -78.476562 134.519531 -75.851562 133.5 -73.40625 Z M 47.421875 -41.515625 C 47.523438 -41.441406 47.597656 -41.382812 47.640625 -41.34375 C 47.640625 -41.34375 47.640625 -41.320312 47.640625 -41.28125 C 47.679688 -41.28125 47.703125 -41.300781 47.703125 -41.34375 C 47.617188 -41.382812 47.523438 -41.441406 47.421875 -41.515625 Z M 47.421875 -41.515625 "/></g></g><g style="fill:#030303;fill-opacity:1;"><g transform="translate(165.130979, 105.700798)"><path style="stroke:none" d="M 22.0625 -15.5 C 22.539062 -15.226562 22.578125 -14.5625 22.171875 -13.5 C 21.585938 -12.726562 20.957031 -12.007812 20.28125 -11.34375 C 19.613281 -10.675781 18.882812 -10.078125 18.09375 -9.546875 C 18.03125 -9.546875 18 -9.523438 18 -9.484375 C 17.476562 -9.117188 16.921875 -8.804688 16.328125 -8.546875 C 11.484375 -6.804688 9.007812 -7.832031 8.90625 -11.625 C 6.945312 -9.914062 5.628906 -8.867188 4.953125 -8.484375 C 3.359375 -7.535156 1.625 -7.109375 -0.25 -7.203125 C -1.625 -7.285156 -2.554688 -7.707031 -3.046875 -8.46875 C -3.546875 -9.226562 -3.503906 -10.257812 -2.921875 -11.5625 C -2.023438 -13.601562 -0.757812 -15.425781 0.875 -17.03125 C 2.800781 -18.820312 4.941406 -20.253906 7.296875 -21.328125 C 8.554688 -21.953125 9.875 -22.191406 11.25 -22.046875 C 12.632812 -21.972656 13.46875 -21.195312 13.75 -19.71875 C 13.875 -19.269531 13.765625 -18.875 13.421875 -18.53125 C 12.972656 -18.125 12.453125 -18.03125 11.859375 -18.25 C 11.816406 -18.25 11.757812 -18.257812 11.6875 -18.28125 C 11.625 -18.300781 11.570312 -18.332031 11.53125 -18.375 C 10.9375 -19.1875 10.34375 -19.523438 9.75 -19.390625 C 9.15625 -19.253906 8.519531 -18.984375 7.84375 -18.578125 C 4.71875 -16.753906 2.394531 -14.210938 0.875 -10.953125 C 0.800781 -10.804688 0.753906 -10.644531 0.734375 -10.46875 C 0.710938 -10.300781 0.757812 -10.164062 0.875 -10.0625 C 1.238281 -9.945312 1.644531 -9.972656 2.09375 -10.140625 C 2.539062 -10.316406 2.988281 -10.570312 3.4375 -10.90625 C 3.882812 -11.238281 4.257812 -11.515625 4.5625 -11.734375 C 4.601562 -11.796875 4.625 -11.828125 4.625 -11.828125 C 6.101562 -13.066406 7.550781 -14.335938 8.96875 -15.640625 C 9.601562 -16.304688 10.382812 -16.679688 11.3125 -16.765625 C 12.65625 -16.765625 13.210938 -16.164062 12.984375 -14.96875 C 12.867188 -14.519531 12.738281 -14.070312 12.59375 -13.625 C 12.0625 -11.695312 12.039062 -10.566406 12.53125 -10.234375 C 13.019531 -9.898438 13.765625 -9.898438 14.765625 -10.234375 C 15.773438 -10.566406 16.78125 -11.203125 17.78125 -12.140625 C 18.78125 -13.085938 19.625 -13.953125 20.3125 -14.734375 C 21.007812 -15.515625 21.59375 -15.769531 22.0625 -15.5 Z M 22.0625 -15.5 "/></g></g><g style="fill:#030303;fill-opacity:1;"><g transform="translate(185.295378, 105.700798)"><path style="stroke:none" d="M 19.015625 -14.6875 C 16.296875 -11.488281 13.632812 -9.128906 11.03125 -7.609375 C 8.425781 -6.085938 5.632812 -5.582031 2.65625 -6.09375 C -0.3125 -6.613281 -1.53125 -8.609375 -1 -12.078125 C -0.632812 -13.816406 -0.140625 -15.519531 0.484375 -17.1875 C 2.046875 -21.0625 3.628906 -24.914062 5.234375 -28.75 C 5.753906 -30.125 6.3125 -31.507812 6.90625 -32.90625 C 7.050781 -33.21875 7.179688 -33.523438 7.296875 -33.828125 C 7.523438 -34.328125 7.75 -34.84375 7.96875 -35.375 C 8.289062 -36.269531 7.9375 -36.738281 6.90625 -36.78125 C 6.3125 -36.78125 5.734375 -36.78125 5.171875 -36.78125 C 4.910156 -36.78125 4.613281 -36.78125 4.28125 -36.78125 C 3.976562 -36.738281 3.664062 -36.695312 3.34375 -36.65625 C 2.820312 -36.613281 2.300781 -36.59375 1.78125 -36.59375 C 1.257812 -36.59375 0.773438 -36.722656 0.328125 -36.984375 C 0.210938 -37.023438 0.117188 -37.101562 0.046875 -37.21875 C -0.0234375 -37.332031 -0.0625 -37.457031 -0.0625 -37.59375 C -0.0195312 -37.675781 0.046875 -37.769531 0.140625 -37.875 C 0.234375 -37.988281 0.347656 -38.066406 0.484375 -38.109375 C 0.929688 -38.296875 1.398438 -38.429688 1.890625 -38.515625 C 3.140625 -38.566406 4.382812 -38.613281 5.625 -38.65625 C 6.113281 -38.65625 6.539062 -38.65625 6.90625 -38.65625 C 7.71875 -38.65625 8.320312 -38.6875 8.71875 -38.75 C 9.113281 -38.8125 9.429688 -39.023438 9.671875 -39.390625 C 9.910156 -39.753906 10.195312 -40.3125 10.53125 -41.0625 C 10.707031 -41.46875 10.925781 -41.914062 11.1875 -42.40625 C 11.863281 -43.820312 12.535156 -45.269531 13.203125 -46.75 C 13.503906 -47.414062 13.816406 -48.066406 14.140625 -48.703125 C 14.410156 -49.328125 14.828125 -49.8125 15.390625 -50.15625 C 15.941406 -50.425781 16.421875 -50.40625 16.828125 -50.09375 C 16.941406 -50.019531 17.035156 -49.890625 17.109375 -49.703125 C 17.179688 -49.523438 17.21875 -49.363281 17.21875 -49.21875 C 17.21875 -48.425781 17.015625 -47.644531 16.609375 -46.875 C 16.523438 -46.707031 16.429688 -46.515625 16.328125 -46.296875 C 16.066406 -45.566406 15.785156 -44.828125 15.484375 -44.078125 C 14.890625 -42.691406 14.332031 -41.28125 13.8125 -39.84375 C 13.664062 -39.582031 13.660156 -39.347656 13.796875 -39.140625 C 13.929688 -38.941406 14.128906 -38.84375 14.390625 -38.84375 C 15.828125 -38.800781 17.234375 -38.78125 18.609375 -38.78125 C 19.328125 -38.78125 20.039062 -38.78125 20.75 -38.78125 C 22.976562 -38.738281 23.867188 -38.425781 23.421875 -37.84375 C 23.117188 -37.5 22.789062 -37.300781 22.4375 -37.25 C 22.082031 -37.195312 21.722656 -37.203125 21.359375 -37.265625 C 21.128906 -37.265625 20.90625 -37.265625 20.6875 -37.265625 C 18.414062 -37.117188 16.164062 -37.023438 13.9375 -36.984375 C 12.894531 -36.984375 12.203125 -36.519531 11.859375 -35.59375 C 11.492188 -34.695312 11.140625 -33.800781 10.796875 -32.90625 C 10.285156 -31.738281 9.8125 -30.59375 9.375 -29.46875 C 8.925781 -28.414062 8.476562 -27.351562 8.03125 -26.28125 C 6.875 -23.5625 5.757812 -20.832031 4.6875 -18.09375 C 4.019531 -16.3125 3.492188 -14.488281 3.109375 -12.625 C 2.253906 -9.238281 3.5625 -7.941406 7.03125 -8.734375 C 10.4375 -9.546875 14.003906 -12 17.734375 -16.09375 C 19.359375 -17.125 19.785156 -16.65625 19.015625 -14.6875 Z M 19.015625 -14.6875 "/></g></g><g style="fill:#030303;fill-opacity:1;"><g transform="translate(202.570452, 105.700798)"><path style="stroke:none" d="M 24.703125 -14.171875 C 24.335938 -13.847656 23.953125 -13.554688 23.546875 -13.296875 C 22.242188 -12.484375 21.070312 -11.84375 20.03125 -11.375 C 18.988281 -10.90625 17.753906 -10.429688 16.328125 -9.953125 C 14.222656 -9.316406 12.867188 -9.453125 12.265625 -10.359375 C 11.671875 -11.273438 11.578125 -12.546875 11.984375 -14.171875 C 12.554688 -16.484375 12.882812 -18.175781 12.96875 -19.25 C 13.0625 -20.320312 12.707031 -20.691406 11.90625 -20.359375 C 11.101562 -20.023438 9.648438 -18.914062 7.546875 -17.03125 C 4.609375 -14.5 2.09375 -11.597656 0 -8.328125 C -0.257812 -7.890625 -0.582031 -7.523438 -0.96875 -7.234375 C -1.351562 -6.953125 -1.832031 -6.8125 -2.40625 -6.8125 C -2.945312 -6.8125 -3.335938 -6.953125 -3.578125 -7.234375 C -3.828125 -7.523438 -3.84375 -7.910156 -3.625 -8.390625 C -2.425781 -11.023438 -1.195312 -13.644531 0.0625 -16.25 C 2.207031 -20.75 4.328125 -25.226562 6.421875 -29.6875 C 7.984375 -33.03125 9.523438 -36.375 11.046875 -39.71875 C 11.972656 -41.6875 12.882812 -43.65625 13.78125 -45.625 C 13.863281 -45.789062 13.953125 -45.960938 14.046875 -46.140625 C 14.128906 -46.367188 14.226562 -46.59375 14.34375 -46.8125 C 14.457031 -47.039062 14.582031 -47.285156 14.71875 -47.546875 C 14.84375 -47.765625 15.070312 -47.941406 15.40625 -48.078125 C 15.738281 -48.222656 16.070312 -48.316406 16.40625 -48.359375 C 16.738281 -48.398438 17 -48.378906 17.1875 -48.296875 C 17.445312 -48.117188 17.59375 -47.925781 17.625 -47.71875 C 17.65625 -47.519531 17.617188 -47.3125 17.515625 -47.09375 C 17.472656 -47.050781 17.453125 -46.976562 17.453125 -46.875 C 17.054688 -45.675781 16.632812 -44.519531 16.1875 -43.40625 C 13.601562 -37.195312 10.789062 -31.082031 7.75 -25.0625 C 7.53125 -24.65625 7.269531 -24.171875 6.96875 -23.609375 C 6.519531 -22.796875 6.101562 -22 5.71875 -21.21875 C 5.332031 -20.4375 5.203125 -19.910156 5.328125 -19.640625 C 5.460938 -19.378906 6.066406 -19.585938 7.140625 -20.265625 C 7.472656 -20.484375 7.769531 -20.703125 8.03125 -20.921875 C 8.882812 -21.492188 9.726562 -22.035156 10.5625 -22.546875 C 11.289062 -23.023438 12.097656 -23.285156 12.984375 -23.328125 C 15.117188 -23.472656 16.316406 -22.507812 16.578125 -20.4375 C 16.679688 -19.601562 16.648438 -18.78125 16.484375 -17.96875 C 16.328125 -17.164062 16.132812 -16.367188 15.90625 -15.578125 C 15.863281 -15.347656 15.820312 -15.125 15.78125 -14.90625 C 15.414062 -13.53125 15.507812 -12.738281 16.0625 -12.53125 C 16.625 -12.332031 17.40625 -12.441406 18.40625 -12.859375 C 19.414062 -13.285156 20.4375 -13.804688 21.46875 -14.421875 C 22.1875 -14.785156 22.8125 -15.097656 23.34375 -15.359375 C 23.882812 -15.617188 24.285156 -15.734375 24.546875 -15.703125 C 25.035156 -15.617188 25.257812 -15.414062 25.21875 -15.09375 C 25.175781 -14.78125 25.003906 -14.472656 24.703125 -14.171875 Z M 24.703125 -14.171875 "/></g></g><g style="fill:#030303;fill-opacity:1;"><g transform="translate(225.776238, 105.700798)"><path style="stroke:none" d="M 12.09375 -12.8125 C 11.007812 -11.53125 9.722656 -10.351562 8.234375 -9.28125 C 6.753906 -8.207031 5.082031 -7.484375 3.21875 -7.109375 C 1.351562 -6.734375 -0.09375 -6.867188 -1.125 -7.515625 C -2.15625 -8.160156 -2.359375 -9.597656 -1.734375 -11.828125 C -0.921875 -14.140625 0.191406 -16.34375 1.609375 -18.4375 C 1.929688 -18.882812 2.398438 -19.195312 3.015625 -19.375 C 3.460938 -19.476562 3.851562 -19.398438 4.1875 -19.140625 C 4.519531 -18.890625 4.644531 -18.570312 4.5625 -18.1875 C 4.257812 -17.457031 3.925781 -16.726562 3.5625 -16 C 3.195312 -15.269531 2.953125 -14.796875 2.828125 -14.578125 C 2.117188 -13.273438 1.625 -11.914062 1.34375 -10.5 C 1.34375 -9.6875 2.425781 -9.632812 4.59375 -10.34375 C 6.757812 -11.050781 8.867188 -12.351562 10.921875 -14.25 C 12.972656 -16.144531 13.953125 -16.703125 13.859375 -15.921875 C 13.765625 -15.140625 13.175781 -14.101562 12.09375 -12.8125 Z M 6.78125 -23 C 6.675781 -22.914062 6.46875 -22.816406 6.15625 -22.703125 C 5.84375 -22.597656 5.507812 -22.519531 5.15625 -22.46875 C 4.800781 -22.414062 4.519531 -22.46875 4.3125 -22.625 C 4.113281 -22.789062 4.101562 -23.117188 4.28125 -23.609375 C 4.613281 -24.453125 4.957031 -25.191406 5.3125 -25.828125 C 5.664062 -26.472656 6.125 -27.179688 6.6875 -27.953125 C 7.050781 -28.296875 7.445312 -28.484375 7.875 -28.515625 C 8.300781 -28.546875 8.65625 -28.429688 8.9375 -28.171875 C 9.226562 -27.921875 9.3125 -27.578125 9.1875 -27.140625 C 8.738281 -25.535156 7.9375 -24.15625 6.78125 -23 Z M 6.78125 -23 "/></g></g><g style="fill:#030303;fill-opacity:1;"><g transform="translate(237.637645, 105.700798)"><path style="stroke:none" d="M 14.71875 -15.421875 C 11.519531 -14.222656 9.207031 -13.25 7.78125 -12.5 C 6.75 -11.988281 6.15625 -11.566406 6 -11.234375 C 5.851562 -10.898438 5.972656 -10.289062 6.359375 -9.40625 C 6.359375 -9.363281 6.390625 -9.300781 6.453125 -9.21875 C 6.898438 -8.144531 7.160156 -7.03125 7.234375 -5.875 C 7.378906 -3.539062 5.398438 -1.90625 1.296875 -0.96875 C -2.804688 -0.0390625 -5.550781 -0.0078125 -6.9375 -0.875 C -8.332031 -1.75 -8.757812 -2.851562 -8.21875 -4.1875 C -7.6875 -5.53125 -6.296875 -6.890625 -4.046875 -8.265625 C -1.796875 -9.648438 -0.289062 -10.644531 0.46875 -11.25 C 1.226562 -11.863281 1.457031 -12.546875 1.15625 -13.296875 C 1.050781 -13.554688 0.941406 -13.816406 0.828125 -14.078125 C 0.554688 -14.710938 0.28125 -15.363281 0 -16.03125 C -0.53125 -17.25 -0.757812 -18.445312 -0.6875 -19.625 C -0.613281 -20.800781 -0.175781 -21.785156 0.625 -22.578125 C 1.425781 -23.378906 2.664062 -23.8125 4.34375 -23.875 C 5.300781 -23.914062 6.15625 -23.789062 6.90625 -23.5 C 7.65625 -23.207031 8.253906 -22.664062 8.703125 -21.875 C 9.066406 -21.320312 8.953125 -20.820312 8.359375 -20.375 C 7.972656 -20.070312 7.5625 -20.035156 7.125 -20.265625 C 6.832031 -20.378906 6.554688 -20.550781 6.296875 -20.78125 C 6.296875 -20.832031 6.296875 -20.859375 6.296875 -20.859375 C 6.171875 -20.941406 6.0625 -21.023438 5.96875 -21.109375 C 5.84375 -21.296875 5.707031 -21.4375 5.5625 -21.53125 C 5.039062 -21.914062 4.507812 -22.03125 3.96875 -21.875 C 3.425781 -21.726562 3.023438 -21.320312 2.765625 -20.65625 C 2.585938 -20.125 2.5 -19.585938 2.5 -19.046875 C 2.539062 -18.367188 2.691406 -17.71875 2.953125 -17.09375 C 3.128906 -16.707031 3.289062 -16.351562 3.4375 -16.03125 C 3.78125 -15.132812 4.0625 -14.519531 4.28125 -14.1875 C 4.507812 -13.851562 4.78125 -13.710938 5.09375 -13.765625 C 5.40625 -13.816406 8.28125 -14.847656 13.71875 -16.859375 C 14.894531 -17.242188 15.226562 -16.765625 14.71875 -15.421875 Z M 1.546875 -3.796875 C 2.972656 -4.285156 3.570312 -5.238281 3.34375 -6.65625 C 3.34375 -6.757812 3.320312 -6.875 3.28125 -7 C 3.195312 -7.769531 3.035156 -8.363281 2.796875 -8.78125 C 2.554688 -9.195312 2.007812 -9.179688 1.15625 -8.734375 C -0.945312 -7.535156 -2.894531 -6.132812 -4.6875 -4.53125 C -4.800781 -4.382812 -4.910156 -4.253906 -5.015625 -4.140625 C -5.015625 -4.140625 -5.035156 -4.109375 -5.078125 -4.046875 C -5.203125 -3.878906 -5.222656 -3.691406 -5.140625 -3.484375 C -5.054688 -3.285156 -4.875 -3.1875 -4.59375 -3.1875 C -2.5 -2.863281 -0.453125 -3.066406 1.546875 -3.796875 Z M 1.546875 -3.796875 "/></g></g><g style="fill:#030303;fill-opacity:1;"><g transform="translate(251.110994, 105.700798)"><path style="stroke:none" d="M 17.34375 -11.6875 C 16.164062 -10.53125 14.796875 -9.539062 13.234375 -8.71875 C 11.671875 -7.894531 10.359375 -7.351562 9.296875 -7.09375 C 8.242188 -6.84375 7.160156 -6.695312 6.046875 -6.65625 C 4.265625 -6.582031 2.625 -6.828125 1.125 -7.390625 C -1.332031 -8.378906 -2.179688 -10.273438 -1.421875 -13.078125 C -0.710938 -15.492188 0.722656 -17.378906 2.890625 -18.734375 C 5.054688 -20.097656 7.296875 -20.757812 9.609375 -20.71875 C 9.609375 -20.71875 9.628906 -20.71875 9.671875 -20.71875 C 10.265625 -20.757812 10.820312 -20.71875 11.34375 -20.59375 C 12.238281 -20.269531 12.804688 -19.742188 13.046875 -19.015625 C 13.296875 -18.285156 13.132812 -17.472656 12.5625 -16.578125 C 11.257812 -14.609375 9.492188 -13.515625 7.265625 -13.296875 C 5.785156 -13.148438 4.359375 -13.21875 2.984375 -13.5 C 2.710938 -13.539062 2.476562 -13.46875 2.28125 -13.28125 C 2.082031 -13.101562 1.960938 -12.882812 1.921875 -12.625 C 1.515625 -10.875 2.050781 -9.757812 3.53125 -9.28125 C 5.351562 -8.644531 7.25 -8.644531 9.21875 -9.28125 C 11.488281 -9.988281 13.644531 -11.328125 15.6875 -13.296875 C 17.738281 -15.265625 18.921875 -16.179688 19.234375 -16.046875 C 19.554688 -15.910156 19.65625 -15.53125 19.53125 -14.90625 C 19.25 -13.914062 18.519531 -12.84375 17.34375 -11.6875 Z M 4.375 -16.578125 C 4.257812 -16.429688 4.175781 -16.269531 4.125 -16.09375 C 4.070312 -15.925781 4.132812 -15.773438 4.3125 -15.640625 C 5.03125 -15.234375 5.800781 -15.082031 6.625 -15.1875 C 7.457031 -15.300781 8.160156 -15.613281 8.734375 -16.125 C 9.316406 -16.644531 9.566406 -17.28125 9.484375 -18.03125 C 9.429688 -18.300781 9.289062 -18.46875 9.0625 -18.53125 C 8.84375 -18.601562 8.617188 -18.617188 8.390625 -18.578125 C 6.890625 -18.316406 5.550781 -17.648438 4.375 -16.578125 Z M 4.375 -16.578125 "/></g></g></g><mask id="49dc441a2f"><g filter="url(#7e1635ac49)"><rect x="0" width="375" y="0" height="149.999998" style="fill:#000000;fill-opacity:0.9;stroke:none;"/></g></mask></g><g style="fill:#ffd700;fill-opacity:1;"><g transform="translate(181.932415, 144.025466)"><path style="stroke:none" d="M 2.6875 -9.0625 C 2.6875 -8.570312 2.875 -8.117188 3.25 -7.703125 C 3.632812 -7.296875 4.097656 -6.929688 4.640625 -6.609375 C 5.191406 -6.296875 5.738281 -5.976562 6.28125 -5.65625 C 6.820312 -5.332031 7.28125 -4.929688 7.65625 -4.453125 C 8.039062 -3.984375 8.234375 -3.457031 8.234375 -2.875 C 8.234375 -1.976562 7.898438 -1.238281 7.234375 -0.65625 C 6.566406 -0.0820312 5.660156 0.203125 4.515625 0.203125 C 3.378906 0.203125 2.253906 -0.015625 1.140625 -0.453125 L 1.140625 -1.21875 C 2.265625 -0.65625 3.222656 -0.375 4.015625 -0.375 C 4.804688 -0.375 5.421875 -0.566406 5.859375 -0.953125 C 6.304688 -1.347656 6.53125 -1.882812 6.53125 -2.5625 C 6.53125 -3.03125 6.347656 -3.453125 5.984375 -3.828125 C 5.617188 -4.210938 5.175781 -4.546875 4.65625 -4.828125 C 4.132812 -5.109375 3.613281 -5.394531 3.09375 -5.6875 C 2.570312 -5.988281 2.128906 -6.367188 1.765625 -6.828125 C 1.398438 -7.285156 1.21875 -7.835938 1.21875 -8.484375 C 1.21875 -9.140625 1.507812 -9.75 2.09375 -10.3125 C 2.675781 -10.875 3.539062 -11.15625 4.6875 -11.15625 C 5.4375 -11.15625 6.382812 -10.988281 7.53125 -10.65625 L 7.375 -9.515625 C 5.882812 -10.160156 4.609375 -10.484375 3.546875 -10.484375 C 2.972656 -10.203125 2.6875 -9.726562 2.6875 -9.0625 Z M 2.6875 -9.0625 "/></g></g><g style="fill:#ffd700;fill-opacity:1;"><g transform="translate(191.142299, 144.025466)"><path style="stroke:none" d="M 3.09375 -5.4375 L 3.09375 0 L 1.484375 0 L 1.484375 -10.96875 L 3.09375 -10.96875 L 3.09375 -6.0625 L 8.109375 -6.0625 L 8.109375 -10.96875 L 9.71875 -10.96875 L 9.71875 0 L 8.109375 0 L 8.109375 -5.4375 Z M 3.09375 -5.4375 "/></g></g><g style="fill:#ffd700;fill-opacity:1;"><g transform="translate(202.356478, 144.025466)"><path style="stroke:none" d="M 6.46875 -11.15625 C 7.90625 -11.15625 9.09375 -10.679688 10.03125 -9.734375 C 10.96875 -8.796875 11.4375 -7.488281 11.4375 -5.8125 C 11.4375 -4.726562 11.25 -3.78125 10.875 -2.96875 C 10.5 -2.15625 10.007812 -1.53125 9.40625 -1.09375 C 8.226562 -0.226562 6.925781 0.203125 5.5 0.203125 C 4.070312 0.203125 2.890625 -0.273438 1.953125 -1.234375 C 1.023438 -2.191406 0.5625 -3.507812 0.5625 -5.1875 C 0.5625 -6.0625 0.6875 -6.847656 0.9375 -7.546875 C 1.1875 -8.242188 1.507812 -8.8125 1.90625 -9.25 C 2.3125 -9.695312 2.78125 -10.070312 3.3125 -10.375 C 4.28125 -10.894531 5.332031 -11.15625 6.46875 -11.15625 Z M 3.140625 -1.890625 C 3.429688 -1.398438 3.816406 -1.019531 4.296875 -0.75 C 4.785156 -0.476562 5.347656 -0.34375 5.984375 -0.34375 C 6.617188 -0.34375 7.1875 -0.503906 7.6875 -0.828125 C 8.1875 -1.148438 8.570312 -1.570312 8.84375 -2.09375 C 9.40625 -3.125 9.6875 -4.238281 9.6875 -5.4375 C 9.6875 -6.90625 9.394531 -8.085938 8.8125 -8.984375 C 8.15625 -9.984375 7.078125 -10.484375 5.578125 -10.484375 C 4.503906 -10.109375 3.691406 -9.460938 3.140625 -8.546875 C 2.585938 -7.628906 2.3125 -6.59375 2.3125 -5.4375 C 2.3125 -4.019531 2.585938 -2.835938 3.140625 -1.890625 Z M 3.140625 -1.890625 "/></g></g><g style="fill:#ffd700;fill-opacity:1;"><g transform="translate(214.365764, 144.025466)"><path style="stroke:none" d="M 8.859375 -8.109375 C 8.859375 -7.054688 8.46875 -6.253906 7.6875 -5.703125 C 6.914062 -5.160156 5.859375 -4.890625 4.515625 -4.890625 L 3.09375 -4.890625 L 3.09375 0 L 1.484375 0 L 1.484375 -10.96875 L 5.046875 -10.96875 C 6.160156 -10.96875 7.070312 -10.710938 7.78125 -10.203125 C 8.5 -9.691406 8.859375 -8.992188 8.859375 -8.109375 Z M 3.09375 -5.359375 L 4.578125 -5.359375 C 5.085938 -5.359375 5.523438 -5.457031 5.890625 -5.65625 C 6.265625 -5.863281 6.535156 -6.117188 6.703125 -6.421875 C 7.003906 -6.972656 7.15625 -7.507812 7.15625 -8.03125 C 7.15625 -8.28125 7.085938 -8.582031 6.953125 -8.9375 C 6.691406 -9.664062 6.144531 -10.144531 5.3125 -10.375 C 4.519531 -10.375 3.78125 -10.28125 3.09375 -10.09375 Z M 3.09375 -5.359375 "/></g></g><path style="fill:none;stroke-width:1;stroke-linecap:butt;stroke-linejoin:miter;stroke:#ffd700;stroke-opacity:1;stroke-miterlimit:4;" d="M -0.000109097 0.500473 L 16.860981 0.500473 " transform="matrix(1.832761,0,0,1.832761,237.027544,137.516346)"/><path style="fill:none;stroke-width:1;stroke-linecap:butt;stroke-linejoin:miter;stroke:#ffd700;stroke-opacity:1;stroke-miterlimit:4;" d="M -0.000676471 0.500656 L 16.860413 0.500656 " transform="matrix(1.832761,0,0,1.832761,137.415302,136.894916)"/></g></svg>